<svg width="64" height="64" viewBox="0 0 64 64" fill="none" xmlns="http://www.w3.org/2000/svg">
<path d="M54 46.5V20.5C54 19.3954 53.1046 18.5 52 18.5H11C9.89543 18.5 9 19.3954 9 20.5V46.5C9 47.6046 9.89543 48.5 11 48.5H52C53.1046 48.5 54 47.6046 54 46.5Z" fill="url(#paint0_linear_106:362)"/>
<g filter="url(#filter0_bi_106:362)">
<path d="M30.5454 33.0085L13.522 19.5698C12.033 18.3943 12.8642 16 14.7613 16H48.358C50.242 16 51.081 18.3669 49.6176 19.5535L33.0443 32.9922C32.3176 33.5814 31.2796 33.5882 30.5454 33.0085Z" fill="white" fill-opacity="0.8"/>
</g>
<g filter="url(#filter1_d_106:362)">
<path d="M22.4 20H42M22 27H42M22 34H42" stroke="white" stroke-width="2" stroke-linecap="round" stroke-linejoin="round"/>
</g>
<g filter="url(#filter2_bd_106:362)">
<path d="M54 20.5V46.5C54 47.6046 53.1046 48.5 52 48.5H11C9.89543 48.5 9 47.6046 9 46.5V20.5C9 19.3954 9.89543 18.5 11 18.5H12.8166C12.9163 18.8957 13.1446 19.2719 13.522 19.5698L30.5454 33.0085C31.2796 33.5882 32.3176 33.5814 33.0443 32.9922L49.6176 19.5535C49.9828 19.2574 50.2045 18.8879 50.3025 18.5H52C53.1046 18.5 54 19.3954 54 20.5Z" fill="url(#paint1_linear_106:362)"/>
</g>
<defs>
<filter id="filter0_bi_106:362" x="9.75732" y="13" width="43.6046" height="23.4387" filterUnits="userSpaceOnUse" color-interpolation-filters="sRGB">
<feFlood flood-opacity="0" result="BackgroundImageFix"/>
<feGaussianBlur in="BackgroundImage" stdDeviation="1.5"/>
<feComposite in2="SourceAlpha" operator="in" result="effect1_backgroundBlur_106:362"/>
<feBlend mode="normal" in="SourceGraphic" in2="effect1_backgroundBlur_106:362" result="shape"/>
<feColorMatrix in="SourceAlpha" type="matrix" values="0 0 0 0 0 0 0 0 0 0 0 0 0 0 0 0 0 0 127 0" result="hardAlpha"/>
<feOffset dy="-3"/>
<feGaussianBlur stdDeviation="2"/>
<feComposite in2="hardAlpha" operator="arithmetic" k2="-1" k3="1"/>
<feColorMatrix type="matrix" values="0 0 0 0 0 0 0 0 0 0 0 0 0 0 0 0 0 0 0.12 0"/>
<feBlend mode="normal" in2="shape" result="effect2_innerShadow_106:362"/>
</filter>
<filter id="filter1_d_106:362" x="20" y="18.5" width="24" height="18" filterUnits="userSpaceOnUse" color-interpolation-filters="sRGB">
<feFlood flood-opacity="0" result="BackgroundImageFix"/>
<feColorMatrix in="SourceAlpha" type="matrix" values="0 0 0 0 0 0 0 0 0 0 0 0 0 0 0 0 0 0 127 0" result="hardAlpha"/>
<feOffset dy="0.5"/>
<feGaussianBlur stdDeviation="0.5"/>
<feComposite in2="hardAlpha" operator="out"/>
<feColorMatrix type="matrix" values="0 0 0 0 0 0 0 0 0 0 0 0 0 0 0 0 0 0 0.12 0"/>
<feBlend mode="normal" in2="BackgroundImageFix" result="effect1_dropShadow_106:362"/>
<feBlend mode="normal" in="SourceGraphic" in2="effect1_dropShadow_106:362" result="shape"/>
</filter>
<filter id="filter2_bd_106:362" x="5" y="15.5" width="53" height="40" filterUnits="userSpaceOnUse" color-interpolation-filters="sRGB">
<feFlood flood-opacity="0" result="BackgroundImageFix"/>
<feGaussianBlur in="BackgroundImage" stdDeviation="1.5"/>
<feComposite in2="SourceAlpha" operator="in" result="effect1_backgroundBlur_106:362"/>
<feColorMatrix in="SourceAlpha" type="matrix" values="0 0 0 0 0 0 0 0 0 0 0 0 0 0 0 0 0 0 127 0" result="hardAlpha"/>
<feOffset dy="3"/>
<feGaussianBlur stdDeviation="2"/>
<feComposite in2="hardAlpha" operator="out"/>
<feColorMatrix type="matrix" values="0 0 0 0 0 0 0 0 0 0 0 0 0 0 0 0 0 0 0.12 0"/>
<feBlend mode="normal" in2="effect1_backgroundBlur_106:362" result="effect2_dropShadow_106:362"/>
<feBlend mode="normal" in="SourceGraphic" in2="effect2_dropShadow_106:362" result="shape"/>
</filter>
<linearGradient id="paint0_linear_106:362" x1="8.625" y1="24.2576" x2="55.8324" y2="65.3089" gradientUnits="userSpaceOnUse">
<stop stop-color="#3BBEF5"/>
<stop offset="0.989583" stop-color="#3B58ED"/>
</linearGradient>
<linearGradient id="paint1_linear_106:362" x1="8.625" y1="24.2576" x2="55.8324" y2="65.3089" gradientUnits="userSpaceOnUse">
<stop stop-color="#3BBEF5"/>
<stop offset="0.989583" stop-color="#3B58ED"/>
</linearGradient>
</defs>
</svg>
