<svg width="17" height="14" viewBox="0 0 17 14" fill="none" xmlns="http://www.w3.org/2000/svg">
<path fill-rule="evenodd" clip-rule="evenodd" d="M9.07411 0.304979C9.45796 -0.0921075 10.091 -0.102838 10.4881 0.281013L16.695 6.28101C16.8899 6.46943 17 6.72891 17 7C17 7.2711 16.8899 7.53057 16.695 7.71899L10.4881 13.719C10.091 14.1028 9.45796 14.0921 9.07411 13.695C8.69026 13.2979 8.70099 12.6649 9.09808 12.281L13.5267 8H1C0.447715 8 0 7.55229 0 7C0 6.44772 0.447715 6 1 6H13.5267L9.09808 1.71899C8.70099 1.33514 8.69026 0.702065 9.07411 0.304979Z" fill="white"/>
</svg>
